<svg width="60" height="60" viewBox="0 0 60 60" fill="none" xmlns="http://www.w3.org/2000/svg">
<g id="icon">
<rect id="Rectangle 89" width="60" height="60" rx="10" fill="#254D5A"/>
<path id="Vector" fill-rule="evenodd" clip-rule="evenodd" d="M27.6157 13.9897L25.0546 16.5485C24.8478 16.7554 24.5674 16.8719 24.2749 16.8726H20.2451C18.3821 16.8726 16.8726 18.3821 16.8726 20.2451V24.2749C16.872 24.5681 16.7555 24.8492 16.5485 25.0568L13.9874 27.6157C13.3552 28.2481 13 29.1058 13 30C13 30.8943 13.3552 31.7519 13.9874 32.3843L16.5485 34.9454C16.7554 35.1522 16.8719 35.4326 16.8726 35.7251V39.7549C16.8726 41.6179 18.3821 43.1274 20.2451 43.1274H24.2749C24.5681 43.128 24.8492 43.2445 25.0568 43.4515L27.6157 46.0126C28.2481 46.6448 29.1058 47 30 47C30.8943 47 31.7519 46.6448 32.3843 46.0126L34.9454 43.4515C35.1522 43.2446 35.4326 43.1281 35.7251 43.1274H39.7549C41.6179 43.1274 43.1274 41.6179 43.1274 39.7549V35.7251C43.128 35.4319 43.2445 35.1508 43.4515 34.9432L46.0126 32.3843C46.6448 31.7519 47 30.8943 47 30C47 29.1058 46.6448 28.2481 46.0126 27.6157L43.4515 25.0546C43.2446 24.8478 43.1281 24.5674 43.1274 24.2749V20.2451C43.1274 18.3821 41.6179 16.8726 39.7549 16.8726H35.7251C35.4318 16.8725 35.1505 16.7559 34.9432 16.5485L32.3843 13.9874C31.7519 13.3552 30.8943 13 30 13C29.1058 13 28.2481 13.3574 27.6157 13.9897ZM23.5315 34.8638L34.8638 23.5315L36.4685 25.1362L25.1362 36.4685L23.5315 34.8638ZM24.3338 24.3338V26.6003H26.6003V24.3338H24.3338ZM33.3997 35.6662H35.6662V33.3997H33.3997V35.6662Z" fill="white"/>
</g>
</svg>
