<svg width="60" height="60" viewBox="0 0 60 60" fill="none" xmlns="http://www.w3.org/2000/svg">
<g id="icon">
<rect id="Rectangle 92" width="60" height="60" rx="10" fill="#254D5A"/>
<path id="Vector" d="M18.9975 24.8664C18.9975 22.3245 19.7302 19.8397 21.1031 17.7262C22.476 15.6127 24.4273 13.9655 26.7104 12.9927C28.9934 12.02 31.5056 11.7655 33.9292 12.2614C36.3529 12.7573 38.5791 13.9813 40.3265 15.7787C42.0738 17.5761 43.2638 19.8661 43.7459 22.3591C44.228 24.8522 43.9806 27.4363 43.0349 29.7847C42.0892 32.1331 40.4878 34.1403 38.4332 35.5525C36.3785 36.9646 33.9628 37.7184 31.4917 37.7184C28.1792 37.7146 25.0034 36.3593 22.661 33.9499C20.3187 31.5405 19.0012 28.2738 18.9975 24.8664ZM41.8713 35.9962C39.0422 38.7978 35.2574 40.3458 31.3305 40.3074C27.4036 40.2691 23.6481 38.6474 20.8712 35.791C18.0943 32.9347 16.5178 29.0716 16.4805 25.0323C16.4432 20.9929 17.9481 17.0998 20.6717 14.1896C20.7883 14.0685 20.8803 13.9248 20.9424 13.7667C21.0045 13.6087 21.0354 13.4395 21.0333 13.2691C21.0312 13.0986 20.9962 12.9303 20.9303 12.7739C20.8644 12.6175 20.7689 12.4762 20.6493 12.3581C20.5298 12.2401 20.3886 12.1477 20.234 12.0863C20.0794 12.0249 19.9145 11.9957 19.7489 12.0005C19.5832 12.0053 19.4202 12.0439 19.2692 12.1142C19.1182 12.1844 18.9823 12.2848 18.8694 12.4096C16.5694 14.8757 14.9998 17.9645 14.3441 21.3147C13.6884 24.6649 13.9738 28.1378 15.1668 31.3273C16.3599 34.5167 18.4113 37.2907 21.0811 39.3247C23.7508 41.3586 26.9285 42.5685 30.2423 42.8126V45.4296H26.494C26.1626 45.4296 25.8448 45.565 25.6105 45.806C25.3762 46.047 25.2446 46.3739 25.2446 46.7148C25.2446 47.0557 25.3762 47.3826 25.6105 47.6236C25.8448 47.8646 26.1626 48 26.494 48H36.4894C36.8208 48 37.1386 47.8646 37.3729 47.6236C37.6072 47.3826 37.7388 47.0557 37.7388 46.7148C37.7388 46.3739 37.6072 46.047 37.3729 45.806C37.1386 45.565 36.8208 45.4296 36.4894 45.4296H32.7411V42.8142C36.8162 42.5247 40.6617 40.767 43.6018 37.8501C43.7231 37.734 43.8207 37.5942 43.889 37.4389C43.9573 37.2836 43.9948 37.1159 43.9995 36.9455C44.0042 36.7751 43.9758 36.6054 43.9161 36.4464C43.8564 36.2874 43.7666 36.1422 43.6518 36.0192C43.5371 35.8963 43.3997 35.798 43.2476 35.7302C43.0956 35.6624 42.932 35.6264 42.7663 35.6242C42.6006 35.6221 42.4361 35.6539 42.2825 35.7178C42.1288 35.7816 41.9891 35.8763 41.8713 35.9962Z" fill="white"/>
</g>
</svg>
