<svg width="60" height="60" viewBox="0 0 60 60" fill="none" xmlns="http://www.w3.org/2000/svg">
<g id="icon">
<rect id="Rectangle 90" width="60" height="60" rx="10" fill="#254D5A"/>
<g id="Group 6">
<path id="Vector" d="M42.586 38.1815C42.5987 38.7404 42.4989 39.2961 42.2923 39.8162C42.0858 40.3362 41.7767 40.8101 41.3831 41.2099C40.9896 41.6097 40.5196 41.9274 40.0008 42.1443C39.4819 42.3613 38.9246 42.4731 38.3616 42.4732C37.7986 42.4734 37.2413 42.3618 36.7223 42.1451C36.2033 41.9284 35.7332 41.611 35.3395 41.2114C34.9458 40.8118 34.6364 40.3381 34.4296 39.8181C34.2227 39.2982 34.1226 38.7425 34.1351 38.1836C34.1595 37.087 34.6153 36.0435 35.4048 35.2764C36.1943 34.5094 37.2549 34.0797 38.3595 34.0795C39.4641 34.0792 40.5249 34.5083 41.3148 35.275C42.1048 36.0416 42.561 37.0849 42.586 38.1815Z" fill="white"/>
<path id="Vector_2" d="M37.7252 46.575C36.0346 46.575 34.344 46.1553 32.8647 45.1061L19.7625 38.1813C18.7058 37.3419 17.8605 36.9222 17.0152 36.0828C14.4793 33.5647 13 29.9974 13 26.43C13 22.8627 14.4793 19.5052 17.0152 16.987C19.5511 14.4689 22.9324 13 26.5249 13C30.1175 13 33.4987 14.4689 36.2459 16.987C37.0912 17.8264 37.5139 18.4559 38.3592 19.5052L45.7556 32.9352C47.8689 36.5025 47.2349 40.9092 44.2763 43.847C42.3744 45.7356 40.2611 46.575 37.7252 46.575ZM26.5249 15.0984C23.5663 15.0984 20.6078 16.3575 18.4945 18.4559C16.3812 20.5544 15.1133 23.4922 15.1133 26.43C15.1133 29.5777 16.3812 32.3056 18.4945 34.4041C19.1285 35.0336 19.7625 35.4533 20.8191 36.0828L34.1327 43.2175C35.4006 44.0569 36.6686 44.2667 37.9365 44.2667C39.8385 44.2667 41.5291 43.6372 42.7971 42.1683C45.1216 39.86 45.5443 36.5025 43.8537 33.7745L36.4573 20.3445C35.8233 19.5052 35.4006 18.8756 34.7666 18.2461C32.442 16.3575 29.6948 15.0984 26.5249 15.0984Z" fill="white"/>
<path id="Vector_3" d="M36.2455 27.6891V25.5907L33.2869 24.5414C33.0756 24.1217 33.0756 23.9119 32.8642 23.4922L34.1322 20.7642L32.6529 19.2953L29.9057 20.5544C29.483 20.3446 29.2717 20.3446 28.849 20.1347L27.7924 17.1969H25.6791L24.6225 20.1347C24.1999 20.3446 23.9885 20.3446 23.5659 20.5544L20.8186 19.2953L19.3393 20.7642L20.6073 23.4922C20.396 23.9119 20.396 24.1217 20.1846 24.5414L17.2261 25.5907V27.6891L20.1846 28.7383C20.396 29.158 20.396 29.3678 20.6073 29.7875L19.3393 32.5155L20.8186 33.9844L23.5659 32.7253C23.9885 32.9352 24.1999 33.145 24.6225 33.145L25.6791 36.0828H27.7924L28.849 33.145C29.2717 32.9352 29.483 32.9352 29.9057 32.7253L32.6529 33.9844L34.1322 32.5155L32.8642 29.7875C33.0756 29.3678 33.2869 29.158 33.2869 28.7383L36.2455 27.6891ZM26.7358 29.7875C25.0452 29.7875 23.5659 28.3186 23.5659 26.6399C23.5659 24.9611 25.0452 23.4922 26.7358 23.4922C28.4264 23.4922 29.9057 24.9611 29.9057 26.6399C29.9057 28.3186 28.4264 29.7875 26.7358 29.7875Z" fill="white"/>
</g>
</g>
</svg>
