<svg width="60" height="60" viewBox="0 0 60 60" fill="none" xmlns="http://www.w3.org/2000/svg">
<g id="icon">
<rect id="Rectangle 93" width="60" height="60" rx="10" fill="#254D5A"/>
<g id="Mask group">
<mask id="mask0_0_275" style="mask-type:luminance" maskUnits="userSpaceOnUse" x="11" y="11" width="38" height="38">
<g id="Group">
<g id="Group_2">
<path id="Vector" d="M25.7804 47C24.9474 44.2843 23.6911 42.2587 22.0107 40.9251C19.4904 38.925 15.4861 40.1686 14.0071 38.1048C12.5281 36.041 15.0432 32.2466 15.9255 30.0077C16.8087 27.7688 12.5425 26.9774 13.0406 26.3416C13.3721 25.9174 15.5286 24.6952 19.5083 22.673C20.6388 16.2249 24.8148 13 32.0381 13C42.8722 13 46.9998 22.1851 46.9998 28.028C46.9998 33.8692 42.0018 40.1626 34.8822 41.5201C34.2456 42.4466 35.1636 44.2741 37.6362 47" stroke="white" stroke-width="3" stroke-linecap="round" stroke-linejoin="round"/>
<path id="Vector_2" fill-rule="evenodd" clip-rule="evenodd" d="M26.1748 21.925C25.6189 24.0789 25.7838 25.5919 26.6703 26.4631C27.556 27.3335 29.0656 27.9039 31.1991 28.1716C30.7146 30.9503 31.3054 32.2533 32.9697 32.0816C34.634 31.9108 35.6344 31.2189 35.9702 30.0076C38.5712 30.7386 39.9813 30.1266 40.1998 28.1716C40.527 25.2391 38.946 22.9008 38.2975 22.9008C37.6498 22.9008 35.9702 22.8217 35.9702 21.925C35.9702 21.0282 34.0084 20.5225 32.2378 20.5225C30.4673 20.5225 31.5323 19.3282 29.1013 19.8C27.4804 20.1145 26.5046 20.8225 26.1748 21.925Z" fill="white" stroke="white" stroke-width="2" stroke-linejoin="round"/>
<path id="Vector_3" d="M35.5247 31.2749C34.6602 31.8113 33.4745 32.7029 32.9747 33.3999C31.726 35.1424 30.7137 36.2032 30.4927 37.3167" stroke="white" stroke-width="2" stroke-linecap="round"/>
</g>
</g>
</mask>
<g mask="url(#mask0_0_275)">
<path id="Vector_4" d="M9.59985 9.6001H50.3999V50.4001H9.59985V9.6001Z" fill="white"/>
</g>
</g>
</g>
</svg>
