<svg width="60" height="60" viewBox="0 0 60 60" fill="none" xmlns="http://www.w3.org/2000/svg">
<g id="icon">
<rect id="Rectangle 91" width="60" height="60" rx="10" fill="#254D5A"/>
<path id="Vector" d="M27 35.4555C27.0219 36.2473 27.3475 36.9993 27.9076 37.5516C28.4677 38.1039 29.2181 38.413 29.9994 38.4131C30.7807 38.4133 31.5312 38.1045 32.0915 37.5525C32.6518 37.0004 32.9778 36.2485 33 35.4567V15.957C32.9779 15.1652 32.6521 14.4133 32.092 13.8611C31.5318 13.3089 30.7813 13 30 13C29.2187 13 28.4682 13.3089 27.908 13.8611C27.3479 14.4133 27.0221 15.1652 27 15.957V35.4555ZM27 43.9581C27 45.6312 28.35 47 30 47C31.65 47 33 45.6312 33 43.9581C33 42.2851 31.65 40.9162 30 40.9162C29.2051 40.9188 28.4435 41.2401 27.8815 41.81C27.3194 42.3799 27.0025 43.1522 27 43.9581Z" fill="white"/>
</g>
</svg>
