<svg width="60" height="60" viewBox="0 0 60 60" fill="none" xmlns="http://www.w3.org/2000/svg">
<g id="icon">
<rect id="Rectangle 94" width="60" height="60" rx="10" fill="#254D5A"/>
<path id="Vector" d="M16.1832 14C15.9014 14 15.6311 14.1124 15.4318 14.3124C15.2325 14.5125 15.1205 14.7838 15.1205 15.0667C15.1205 15.3496 15.2325 15.6209 15.4318 15.8209C15.6311 16.021 15.9014 16.1333 16.1832 16.1333H17.7774L13.1586 27.2587C13.0442 27.5318 12.9906 27.8266 13.0014 28.1227C13.0685 29.7734 13.7692 31.3342 14.9567 32.4784C16.1441 33.6225 17.7265 34.2614 19.3726 34.2614C21.0186 34.2614 22.601 33.6225 23.7885 32.4784C24.9759 31.3342 25.6766 29.7734 25.7438 28.1227C25.7539 27.8265 25.6995 27.5316 25.5843 27.2587L20.9656 16.1333H28.9363V39.6H20.4342C19.5887 39.6 18.7777 39.9371 18.1798 40.5373C17.5819 41.1374 17.246 41.9513 17.246 42.8C17.246 43.6487 17.5819 44.4626 18.1798 45.0627C18.7777 45.6629 19.5887 46 20.4342 46H39.5638C40.4094 46 41.2203 45.6629 41.8182 45.0627C42.4161 44.4626 42.752 43.6487 42.752 42.8C42.752 41.9513 42.4161 41.1374 41.8182 40.5373C41.2203 39.9371 40.4094 39.6 39.5638 39.6H31.0618V16.1333H39.0324L34.4137 27.2587C34.2992 27.5317 34.2455 27.8266 34.2564 28.1227C34.3236 29.7734 35.0242 31.3342 36.2117 32.4784C37.3992 33.6225 38.9815 34.2614 40.6276 34.2614C42.2737 34.2614 43.856 33.6225 45.0435 32.4784C46.231 31.3342 46.9316 29.7734 46.9988 28.1227C47.009 27.8265 46.9546 27.5316 46.8394 27.2587L42.2207 16.1333H43.8148C44.0967 16.1333 44.367 16.021 44.5663 15.8209C44.7656 15.6209 44.8775 15.3496 44.8775 15.0667C44.8775 14.7838 44.7656 14.5125 44.5663 14.3124C44.367 14.1124 44.0967 14 43.8148 14H16.1832ZM19.3715 17.84L23.0911 26.8H15.6519L19.3715 17.84ZM44.3462 26.8H36.9069L40.6265 17.84L44.3462 26.8Z" fill="white"/>
</g>
</svg>
