<svg width="21" height="21" viewBox="0 0 21 21" fill="none" xmlns="http://www.w3.org/2000/svg">
<path id="element" d="M9.00445 2.31109C8.99849 2.09694 9.03552 1.88377 9.11336 1.68418C9.1912 1.48458 9.30825 1.30262 9.45762 1.14905C9.60698 0.99547 9.78562 0.873397 9.98297 0.790041C10.1803 0.706685 10.3924 0.663739 10.6066 0.663741C10.8208 0.663742 11.0329 0.706692 11.2303 0.790052C11.4276 0.873411 11.6062 0.995488 11.7556 1.14907C11.905 1.30265 12.022 1.48461 12.0999 1.6842C12.1777 1.88379 12.2148 2.09697 12.2088 2.31112L12.2089 8.95252C12.2088 8.9613 12.2106 8.97 12.2139 8.97812C12.2173 8.98624 12.2222 8.99361 12.2284 8.99983C12.2346 9.00604 12.242 9.01096 12.2501 9.01432C12.2582 9.01767 12.2669 9.0194 12.2757 9.01939L18.9171 9.01944C19.1287 9.0177 19.3385 9.05786 19.5345 9.13761C19.7305 9.21736 19.9087 9.33513 20.059 9.48411C20.2092 9.63309 20.3284 9.81034 20.4098 10.0056C20.4912 10.2009 20.5331 10.4104 20.5332 10.622C20.5332 10.8336 20.4913 11.0431 20.41 11.2384C20.3286 11.4337 20.2094 11.611 20.0592 11.76C19.909 11.909 19.7308 12.0268 19.5349 12.1066C19.3389 12.1864 19.1291 12.2266 18.9175 12.2249L12.2761 12.2249C12.2673 12.2249 12.2586 12.2266 12.2505 12.2299C12.2424 12.2333 12.235 12.2382 12.2288 12.2444C12.2226 12.2506 12.2177 12.258 12.2143 12.2661C12.211 12.2742 12.2092 12.2829 12.2093 12.2917L12.2093 18.9331C12.2111 19.1447 12.1709 19.3545 12.0912 19.5505C12.0114 19.7465 11.8937 19.9247 11.7447 20.075C11.5957 20.2252 11.4184 20.3444 11.2231 20.4258C11.0278 20.5072 10.8184 20.5491 10.6068 20.5491C10.3952 20.5492 10.1857 20.5073 9.99039 20.426C9.79508 20.3446 9.61779 20.2254 9.46878 20.0752C9.31976 19.925 9.20195 19.7468 9.12215 19.5508C9.04236 19.3549 9.00215 19.1451 9.00384 18.9335L9.00378 12.2921C9.00379 12.2833 9.00207 12.2746 8.99872 12.2665C8.99536 12.2584 8.99043 12.251 8.98422 12.2448C8.97801 12.2386 8.97064 12.2336 8.96252 12.2303C8.9544 12.2269 8.9457 12.2252 8.93692 12.2252L2.29551 12.2252C1.8727 12.2218 1.46836 12.0514 1.17056 11.7513C0.872754 11.4511 0.705624 11.0454 0.705571 10.6226C0.705517 10.1998 0.872544 9.79405 1.17027 9.49382C1.46799 9.19359 1.8723 9.02317 2.29511 9.01968L8.93651 9.01973C8.94529 9.01975 8.95399 9.01802 8.96211 9.01467C8.97023 9.01131 8.97761 9.00639 8.98382 9.00017C8.99003 8.99396 8.99495 8.98659 8.99831 8.97847C9.00167 8.97035 9.00339 8.96165 9.00338 8.95287L9.00332 2.31147L9.00445 2.31109Z" fill="#254D5A"/>
</svg>
