<svg width="34" height="35" viewBox="0 0 34 35" fill="none" xmlns="http://www.w3.org/2000/svg">
<path id="icon" d="M21.7966 2.73506C21.7293 2.68158 21.652 2.64183 21.5692 2.61809C21.4863 2.59435 21.3996 2.58709 21.3139 2.59673C21.2282 2.60637 21.1453 2.63271 21.0699 2.67425C20.9945 2.71579 20.9282 2.77169 20.8747 2.83875L14.8554 10.3723H11.5195L18.8255 1.22887C19.0929 0.894148 19.4244 0.615096 19.801 0.407757C20.1775 0.200418 20.5917 0.0688793 21.0197 0.020699C21.4476 -0.0274812 21.881 0.00864717 22.2949 0.127008C22.7087 0.245369 23.0949 0.44363 23.4312 0.710396L30.1619 6.05462C30.7983 6.56007 31.2212 7.28303 31.3475 8.08161C31.4738 8.88019 31.2944 9.69672 30.8445 10.371H27.4262L28.6123 9.00735C28.6697 8.9414 28.7132 8.86465 28.74 8.78168C28.7668 8.69872 28.7765 8.61124 28.7684 8.52449C28.7604 8.43773 28.7347 8.35348 28.6931 8.27676C28.6514 8.20004 28.5946 8.13243 28.526 8.07798L25.2515 5.47781L21.3703 10.3723H18.0435L23.2089 3.85756L21.7966 2.73506ZM3.92308 6.48366C2.88261 6.48366 1.88476 6.89335 1.14904 7.6226C0.413323 8.35185 0 9.34093 0 10.3723V29.1671C0 30.7141 0.619984 32.1977 1.72356 33.2916C2.82714 34.3855 4.32392 35 5.88462 35H28.1154C29.6761 35 31.1729 34.3855 32.2764 33.2916C33.38 32.1977 34 30.7141 34 29.1671V17.5013C34 15.9544 33.38 14.4707 32.2764 13.3769C31.1729 12.283 29.6761 11.6684 28.1154 11.6684H3.92308C3.57626 11.6684 3.24364 11.5319 2.9984 11.2888C2.75316 11.0457 2.61538 10.716 2.61538 10.3723C2.61538 10.0285 2.75316 9.69878 2.9984 9.4557C3.24364 9.21262 3.57626 9.07605 3.92308 9.07605H9.91231L11.9994 6.48366H3.92308ZM23.5385 22.038H27.4615C27.8084 22.038 28.141 22.1746 28.3862 22.4177C28.6315 22.6608 28.7692 22.9905 28.7692 23.3342C28.7692 23.678 28.6315 24.0077 28.3862 24.2508C28.141 24.4939 27.8084 24.6304 27.4615 24.6304H23.5385C23.1916 24.6304 22.859 24.4939 22.6138 24.2508C22.3685 24.0077 22.2308 23.678 22.2308 23.3342C22.2308 22.9905 22.3685 22.6608 22.6138 22.4177C22.859 22.1746 23.1916 22.038 23.5385 22.038Z" fill="#254D5A"/>
</svg>
