<svg width="60" height="62" viewBox="0 0 60 62" fill="none" xmlns="http://www.w3.org/2000/svg">
<path id="icon" d="M38.4646 4.84496C38.3459 4.75023 38.2095 4.67981 38.0633 4.63776C37.9171 4.59571 37.764 4.58285 37.6127 4.59992C37.4615 4.61699 37.3152 4.66366 37.1822 4.73724C37.0492 4.81082 36.9321 4.90986 36.8377 5.02865L26.2154 18.3737H20.3285L33.2215 2.17686C33.6934 1.58392 34.2784 1.0896 34.9429 0.722313C35.6074 0.355027 36.3382 0.122015 37.0935 0.0366669C37.8488 -0.048681 38.6136 0.0153178 39.3439 0.224986C40.0742 0.434654 40.7557 0.785858 41.3492 1.25842L53.2269 10.7253C54.35 11.6207 55.0962 12.9014 55.3191 14.316C55.5419 15.7306 55.2254 17.1771 54.4315 18.3714H48.3992L50.4923 15.9559C50.5937 15.8391 50.6703 15.7031 50.7176 15.5561C50.765 15.4092 50.782 15.2542 50.7678 15.1005C50.7536 14.9468 50.7084 14.7976 50.6349 14.6617C50.5614 14.5258 50.4611 14.406 50.34 14.3096L44.5615 9.70355L37.7123 18.3737H31.8415L40.9569 6.8334L38.4646 4.84496ZM6.92308 11.4853C5.08696 11.4853 3.32605 12.2111 2.02772 13.5029C0.729394 14.7947 0 16.5468 0 18.3737V51.6675C0 54.4078 1.09409 57.0359 3.04158 58.9737C4.98908 60.9114 7.63044 62 10.3846 62H49.6154C52.3696 62 55.0109 60.9114 56.9584 58.9737C58.9059 57.0359 60 54.4078 60 51.6675V31.0024C60 28.262 58.9059 25.6339 56.9584 23.6962C55.0109 21.7584 52.3696 20.6698 49.6154 20.6698H6.92308C6.31104 20.6698 5.72407 20.4279 5.29129 19.9973C4.85852 19.5667 4.61538 18.9827 4.61538 18.3737C4.61538 17.7647 4.85852 17.1807 5.29129 16.7501C5.72407 16.3195 6.31104 16.0776 6.92308 16.0776H17.4923L21.1754 11.4853H6.92308ZM41.5385 39.0388H48.4615C49.0736 39.0388 49.6605 39.2807 50.0933 39.7113C50.5261 40.1419 50.7692 40.7259 50.7692 41.3349C50.7692 41.9439 50.5261 42.5279 50.0933 42.9585C49.6605 43.3891 49.0736 43.631 48.4615 43.631H41.5385C40.9264 43.631 40.3395 43.3891 39.9067 42.9585C39.4739 42.5279 39.2308 41.9439 39.2308 41.3349C39.2308 40.7259 39.4739 40.1419 39.9067 39.7113C40.3395 39.2807 40.9264 39.0388 41.5385 39.0388Z" fill="white"/>
</svg>
