<svg width="25" height="25" viewBox="0 0 25 25" fill="none" xmlns="http://www.w3.org/2000/svg">
<g id="element">
<circle id="Ellipse 10" cx="12.5" cy="12.5" r="12.5" fill="#254D5A"/>
<path id="Vector" d="M16.8608 7.66045C17.15 7.82352 17.363 8.09556 17.453 8.41675C17.543 8.73793 17.5027 9.08196 17.3408 9.37319L13.2301 16.7642C13.1259 16.9515 12.9816 17.1129 12.8074 17.2367C12.6333 17.3604 12.4339 17.4434 12.2238 17.4795C12.0138 17.5156 11.7983 17.5039 11.5933 17.4453C11.3883 17.3867 11.1989 17.2826 11.039 17.1407L7.9236 14.3776C7.67486 14.1569 7.52338 13.8458 7.50249 13.5127C7.48159 13.1795 7.59299 12.8517 7.81217 12.6012C8.03135 12.3508 8.34037 12.1983 8.67124 12.1772C9.00211 12.1562 9.32773 12.2684 9.57647 12.4891L11.6965 14.3697L15.1594 8.14374C15.2395 7.99952 15.3472 7.87261 15.4761 7.77027C15.605 7.66793 15.7527 7.59216 15.9107 7.54728C16.0686 7.5024 16.2339 7.4893 16.3969 7.50872C16.5599 7.52813 16.7176 7.57969 16.8608 7.66045Z" fill="white"/>
</g>
</svg>
