<svg width="11" height="11" viewBox="0 0 11 11" fill="none" xmlns="http://www.w3.org/2000/svg">
<path id="element" d="M5.4945 0C2.4585 0 0 2.464 0 5.5C0 8.536 2.4585 11 5.4945 11C8.536 11 11 8.536 11 5.5C11 2.464 8.536 0 5.4945 0ZM7.7 7.7C7.64912 7.75099 7.58868 7.79144 7.52214 7.81904C7.45561 7.84664 7.38428 7.86084 7.31225 7.86084C7.24022 7.86084 7.16889 7.84664 7.10236 7.81904C7.03582 7.79144 6.97538 7.75099 6.9245 7.7L5.115 5.8905C5.06303 5.83956 5.02169 5.77882 4.99336 5.71179C4.96504 5.64475 4.9503 5.57277 4.95 5.5V3.3C4.95 2.9975 5.1975 2.75 5.5 2.75C5.8025 2.75 6.05 2.9975 6.05 3.3V5.2745L7.7 6.9245C7.9145 7.139 7.9145 7.4855 7.7 7.7Z" fill="#254D5A"/>
</svg>
