<svg width="62" height="62" viewBox="0 0 62 62" fill="none" xmlns="http://www.w3.org/2000/svg">
<g id="icon">
<path id="Vector" d="M30.976 7C17.728 7 7 17.752 7 31C7 44.248 17.728 55 30.976 55C44.248 55 55 44.248 55 31C55 17.752 44.248 7 30.976 7ZM40.6 40.6C40.378 40.8225 40.1142 40.999 39.8239 41.1194C39.5336 41.2399 39.2223 41.3019 38.908 41.3019C38.5937 41.3019 38.2824 41.2399 37.9921 41.1194C37.7018 40.999 37.438 40.8225 37.216 40.6L29.32 32.704C29.0932 32.4817 28.9128 32.2167 28.7892 31.9242C28.6656 31.6317 28.6013 31.3175 28.6 31V21.4C28.6 20.08 29.68 19 31 19C32.32 19 33.4 20.08 33.4 21.4V30.016L40.6 37.216C41.536 38.152 41.536 39.664 40.6 40.6Z" fill="white"/>
<path id="Ellipse 6" d="M53.7419 50.0232C53.7695 50.298 54.0147 50.4983 54.2894 50.4707L58.7669 50.0209C59.0416 49.9933 59.242 49.7481 59.2144 49.4734C59.1868 49.1986 58.9417 48.9983 58.6669 49.0259L54.6869 49.4258L54.2871 45.4458C54.2595 45.171 54.0143 44.9707 53.7396 44.9983C53.4648 45.0259 53.2645 45.271 53.2921 45.5458L53.7419 50.0232ZM31 60.5C14.7076 60.5 1.5 47.2924 1.5 31H0.5C0.5 47.8447 14.1553 61.5 31 61.5V60.5ZM1.5 31C1.5 14.7076 14.7076 1.5 31 1.5V0.5C14.1553 0.5 0.5 14.1553 0.5 31H1.5ZM31 1.5C47.2924 1.5 60.5 14.7076 60.5 31H61.5C61.5 14.1553 47.8447 0.5 31 0.5V1.5ZM60.5 31C60.5 38.0783 58.0077 44.5731 53.8523 49.6568L54.6266 50.2897C58.9226 45.034 61.5 38.3173 61.5 31H60.5Z" fill="white"/>
</g>
</svg>
