<svg width="28" height="34" viewBox="0 0 28 34" fill="none" xmlns="http://www.w3.org/2000/svg">
<g id="icon">
<path id="Vector" d="M13.6 13.6C20.3592 13.6 27.2 11.2642 27.2 6.8C27.2 2.3358 20.3592 0 13.6 0C6.8408 0 0 2.3358 0 6.8C0 11.2642 6.8408 13.6 13.6 13.6Z" fill="#254D5A"/>
<path id="Vector_2" d="M0 13.6002C0 18.0644 6.8408 20.4002 13.6 20.4002C20.3592 20.4002 27.2 18.0644 27.2 13.6002V10.2002C27.2 14.6644 20.3592 17.0002 13.6 17.0002C6.8408 17.0002 0 14.6644 0 10.2002V13.6002Z" fill="#254D5A"/>
<path id="Vector_3" d="M0 20.4C0 24.8642 6.8408 27.2 13.6 27.2C20.3592 27.2 27.2 24.8642 27.2 20.4V17C27.2 21.4642 20.3592 23.8 13.6 23.8C6.8408 23.8 0 21.4642 0 17V20.4Z" fill="#254D5A"/>
<path id="Vector_4" d="M0 27.1998C0 31.664 6.8408 33.9998 13.6 33.9998C20.3592 33.9998 27.2 31.664 27.2 27.1998V23.7998C27.2 28.264 20.3592 30.5998 13.6 30.5998C6.8408 30.5998 0 28.264 0 23.7998V27.1998Z" fill="#254D5A"/>
</g>
</svg>
