<svg width="25" height="25" viewBox="0 0 25 25" fill="none" xmlns="http://www.w3.org/2000/svg">
<g id="element">
<circle id="Ellipse 10" cx="12.5" cy="12.5" r="12" stroke="#979B9F"/>
<path id="Vector" d="M15.6552 7.83427C15.7533 7.73051 15.8713 7.64748 16.0021 7.59008C16.1329 7.53268 16.2738 7.50209 16.4166 7.5001C16.5594 7.49812 16.7012 7.52478 16.8335 7.57852C16.9658 7.63226 17.086 7.71198 17.187 7.81297C17.288 7.91396 17.3677 8.03417 17.4215 8.1665C17.4752 8.29883 17.5019 8.44059 17.4999 8.5834C17.4979 8.7262 17.4673 8.86717 17.4099 8.99795C17.3525 9.12873 17.2695 9.24668 17.1657 9.34483L14.035 12.4756C14.0308 12.4798 14.0275 12.4847 14.0253 12.4901C14.0231 12.4955 14.0219 12.5013 14.0219 12.5072C14.0219 12.513 14.0231 12.5188 14.0253 12.5242C14.0275 12.5296 14.0308 12.5345 14.035 12.5387L17.1657 15.6695C17.2663 15.7684 17.3463 15.8863 17.4011 16.0162C17.4559 16.1462 17.4844 16.2858 17.485 16.4268C17.4855 16.5679 17.4582 16.7076 17.4045 16.8381C17.3508 16.9685 17.2718 17.087 17.1721 17.1868C17.0724 17.2865 16.9539 17.3655 16.8235 17.4193C16.693 17.473 16.5533 17.5004 16.4122 17.4998C16.2712 17.4993 16.1316 17.4708 16.0016 17.416C15.8716 17.3613 15.7538 17.2813 15.6549 17.1808L12.5241 14.05C12.52 14.0458 12.515 14.0425 12.5096 14.0403C12.5042 14.038 12.4984 14.0369 12.4926 14.0369C12.4867 14.0369 12.4809 14.038 12.4755 14.0403C12.4701 14.0425 12.4652 14.0458 12.461 14.05L9.33029 17.1808C9.23138 17.2813 9.11354 17.3613 8.98356 17.4161C8.85358 17.4709 8.71405 17.4994 8.57299 17.5C8.43194 17.5006 8.29217 17.4732 8.16174 17.4195C8.03131 17.3658 7.9128 17.2869 7.81305 17.1871C7.7133 17.0874 7.63428 16.9689 7.58055 16.8385C7.52683 16.7081 7.49945 16.5683 7.50001 16.4272C7.50057 16.2862 7.52905 16.1466 7.5838 16.0166C7.63856 15.8867 7.71851 15.7688 7.81905 15.6699L10.9498 12.539C10.954 12.5349 10.9572 12.53 10.9595 12.5246C10.9617 12.5192 10.9629 12.5134 10.9629 12.5075C10.9629 12.5017 10.9617 12.4959 10.9595 12.4905C10.9572 12.485 10.954 12.4801 10.9498 12.476L7.81905 9.34518C7.62134 9.14426 7.51102 8.87336 7.51213 8.59148C7.51325 8.30959 7.6257 8.03957 7.825 7.84022C8.0243 7.64087 8.29429 7.52835 8.57617 7.52717C8.85805 7.52599 9.12897 7.63624 9.32993 7.83391L12.4607 10.9647C12.4648 10.9689 12.4697 10.9722 12.4752 10.9744C12.4806 10.9767 12.4864 10.9778 12.4922 10.9778C12.4981 10.9778 12.5039 10.9767 12.5093 10.9744C12.5147 10.9722 12.5196 10.9689 12.5237 10.9647L15.6545 7.83391L15.6552 7.83427Z" fill="#979B9F"/>
</g>
</svg>
