<svg width="14" height="13" viewBox="0 0 14 13" fill="none" xmlns="http://www.w3.org/2000/svg">
<path id="Vector" d="M5.56932 0.0836453C4.81863 -0.057403 4.04327 -0.0196298 3.31138 0.193646C2.57948 0.406921 1.91346 0.789171 1.37184 1.3068C0.794119 1.85791 0.37794 2.54498 0.165114 3.299C-0.0477115 4.05302 -0.0496886 4.84743 0.159382 5.60241C0.368695 5.4293 0.620507 5.31003 0.891152 5.25579C1.1618 5.20156 1.44239 5.21415 1.70656 5.29238C1.97073 5.37061 2.20981 5.51192 2.40132 5.70301C2.59284 5.89411 2.7305 6.12872 2.80137 6.3848C3.02222 6.35421 3.24728 6.36746 3.46256 6.42373C3.67784 6.48 3.87875 6.57809 4.05279 6.71191C4.22683 6.84572 4.3703 7.0124 4.47427 7.20159C4.57824 7.39077 4.6405 7.59843 4.65717 7.81164C5.0463 7.8381 5.41246 7.99797 5.68861 8.26198C5.96477 8.52599 6.13244 8.87647 6.16093 9.24926C6.47149 9.27017 6.76923 9.37623 7.01863 9.55479C7.26802 9.73335 7.45856 9.97686 7.56751 10.2563C7.67646 10.5358 7.69923 10.8393 7.6331 11.1308C7.56698 11.4223 7.41474 11.6894 7.19455 11.9003L6.93024 12.1525L7.70743 12.8562C7.81119 12.9504 7.94924 13.002 8.09213 12.9999C8.23501 12.9979 8.37142 12.9425 8.47225 12.8455C8.56549 12.7556 8.62199 12.6367 8.63148 12.5103C8.64097 12.384 8.60283 12.2585 8.52398 12.1568L8.48124 12.1159C8.46221 12.0977 8.44455 12.0782 8.42838 12.0577L8.31478 11.9478C8.20922 11.8463 8.14994 11.709 8.14994 11.5657C8.14994 11.4225 8.20922 11.2851 8.31478 11.1837C8.36681 11.1337 8.42861 11.0941 8.49664 11.0671C8.56467 11.04 8.6376 11.0261 8.71125 11.0261C8.7849 11.0261 8.85783 11.04 8.92586 11.0671C8.99389 11.0941 9.05569 11.1337 9.10772 11.1837L9.26518 11.3346C9.29892 11.3669 9.33041 11.3992 9.35966 11.4337L9.44401 11.5156C9.49336 11.5632 9.55206 11.6011 9.61672 11.6269C9.68139 11.6527 9.75075 11.6659 9.82079 11.6659C9.89084 11.6659 9.9602 11.6527 10.0249 11.6269C10.0895 11.6011 10.1482 11.5632 10.1976 11.5156C10.2976 11.4193 10.3538 11.2889 10.3538 11.153C10.3538 11.0171 10.2976 10.8867 10.1976 10.7903L10.0289 10.6287C9.9749 10.5769 9.93251 10.5151 9.90428 10.4471C9.87605 10.3791 9.86257 10.3063 9.86466 10.2332C9.86446 10.1267 9.89717 10.0226 9.95867 9.93394C10.0202 9.84528 10.1077 9.77607 10.2102 9.73502C10.3127 9.69398 10.4256 9.68295 10.5347 9.70333C10.6437 9.72371 10.744 9.77458 10.8229 9.84952L10.95 9.97238C11.0048 10.0251 11.0699 10.067 11.1416 10.0956C11.2133 10.1241 11.2902 10.1388 11.3679 10.1388C11.4455 10.1388 11.5224 10.1241 11.5941 10.0956C11.6658 10.067 11.7309 10.0251 11.7857 9.97238C11.8962 9.86561 11.9582 9.72132 11.9582 9.57094C11.9582 9.42057 11.8962 9.27628 11.7857 9.16951L11.7576 9.14149C11.7224 9.11209 11.6882 9.08154 11.6552 9.04989L10.7836 8.21146C10.6783 8.11009 10.6193 7.97293 10.6193 7.82996C10.6193 7.68699 10.6783 7.54984 10.7836 7.44847C10.8356 7.39835 10.8975 7.35859 10.9656 7.33145C11.0337 7.30431 11.1068 7.29035 11.1806 7.29035C11.2544 7.29035 11.3274 7.30431 11.3956 7.33145C11.4637 7.35859 11.5256 7.39835 11.5776 7.44847L12.3964 8.23517C12.4158 8.24981 12.4343 8.26565 12.4515 8.28259L12.519 8.34725C12.6933 8.48326 12.914 8.55239 13.1385 8.54124C13.363 8.53009 13.5751 8.43945 13.7337 8.2869C13.9043 8.12271 14 7.90049 14 7.66885C14 7.43721 13.9043 7.21499 13.7337 7.0508L12.9037 6.25225C12.8924 6.24296 12.8815 6.23325 12.8711 6.22315L9.50587 2.94487H8.64433L6.71879 4.348C5.78752 5.02693 4.45809 4.85451 3.74839 3.96219C3.57954 3.75022 3.45597 3.50842 3.38476 3.25063C3.31355 2.99285 3.29609 2.72414 3.33338 2.45988C3.37068 2.19562 3.46199 1.941 3.60211 1.7106C3.74222 1.4802 3.92837 1.27853 4.14992 1.11713L5.56932 0.0825674V0.0836453ZM9.74206 1.86719C9.81666 1.86735 9.89048 1.88172 9.95922 1.90947C10.028 1.93722 10.0903 1.9778 10.1425 2.02885L13.1747 4.98167C13.3908 4.57233 13.5181 4.12531 13.549 3.66756C13.5799 3.2098 13.5137 2.7508 13.3545 2.3182C13.1953 1.8856 12.9463 1.48838 12.6226 1.15046C12.2988 0.812536 11.907 0.540923 11.4708 0.351986C11.0954 0.145522 10.6698 0.0377113 10.2369 0.0394605H7.48136C7.46399 0.055295 7.44558 0.0700533 7.42625 0.0836453L4.8315 1.97496C4.72749 2.05055 4.64008 2.14506 4.57427 2.25309C4.50846 2.36111 4.46554 2.48052 4.44799 2.60446C4.43043 2.7284 4.43858 2.85445 4.47197 2.97537C4.50536 3.09629 4.56332 3.20971 4.64255 3.30912C4.80267 3.51036 5.03962 3.64247 5.30134 3.67642C5.56306 3.71037 5.82813 3.64338 6.03833 3.49017L8.11458 1.97712C8.21226 1.90595 8.33154 1.86735 8.45425 1.86719H9.74206ZM4.89336 9.7008L4.15442 10.4067C4.06038 10.4966 3.93296 10.5471 3.80013 10.5471C3.66729 10.5471 3.53988 10.4966 3.44584 10.4067C3.35412 10.3193 3.30144 10.2013 3.29892 10.0774C3.2964 9.9535 3.34425 9.83353 3.43234 9.74283L3.44696 9.72882L4.18478 9.02295L4.19828 9.01109C4.29343 8.92691 4.41881 8.88115 4.5483 8.88336C4.67779 8.88557 4.8014 8.93557 4.89336 9.02295C4.94005 9.06733 4.97711 9.12013 5.0024 9.1783C5.02769 9.23647 5.04071 9.29886 5.04071 9.36188C5.04071 9.42489 5.02769 9.48728 5.0024 9.54545C4.97711 9.60363 4.94005 9.65642 4.89336 9.7008ZM4.95072 11.8443C5.04476 11.9342 5.17218 11.9847 5.30501 11.9847C5.43785 11.9847 5.56526 11.9342 5.6593 11.8443L6.39825 11.1384C6.45089 11.0883 6.49117 11.0275 6.51615 10.9605C6.54113 10.8936 6.55018 10.8221 6.54263 10.7513C6.53508 10.6806 6.51113 10.6123 6.47253 10.5516C6.43393 10.4908 6.38165 10.4391 6.31952 10.4002C6.22316 10.3395 6.10792 10.3125 5.9932 10.3237C5.87848 10.3349 5.77129 10.3836 5.68967 10.4616L4.95072 11.1675C4.9042 11.2119 4.86729 11.2646 4.8421 11.3227C4.81691 11.3808 4.80394 11.443 4.80394 11.5059C4.80394 11.5688 4.81691 11.6311 4.8421 11.6891C4.86729 11.7472 4.9042 11.7999 4.95072 11.8443ZM1.59341 7.10577L0.855588 7.81164C0.761549 7.90154 0.634136 7.95202 0.501299 7.95202C0.368462 7.95202 0.241049 7.90154 0.14701 7.81164C0.0552957 7.7243 0.00261318 7.60621 9.46229e-05 7.48234C-0.00242393 7.35846 0.0454187 7.2385 0.133513 7.1478L0.148134 7.13378L0.885956 6.42791L0.899453 6.41606C0.994558 6.33208 1.11984 6.28654 1.24914 6.28895C1.37845 6.29136 1.50178 6.34153 1.59341 6.42899C1.63993 6.47335 1.67685 6.52608 1.70204 6.58415C1.72723 6.64222 1.74019 6.70449 1.74019 6.76738C1.74019 6.83026 1.72723 6.89253 1.70204 6.9506C1.67685 7.00867 1.63993 7.0614 1.59341 7.10577ZM3.25463 8.30522L2.51681 9.01002C2.42277 9.09991 2.29536 9.15039 2.16252 9.15039C2.02969 9.15039 1.90227 9.09991 1.80823 9.01002C1.71685 8.92272 1.66438 8.80486 1.66186 8.68124C1.65934 8.55762 1.70698 8.43789 1.79474 8.34725L1.80936 8.33324L2.54718 7.62736L2.56068 7.61443C2.65578 7.53045 2.78106 7.48492 2.91037 7.48733C3.03967 7.48974 3.16301 7.53991 3.25463 7.62736C3.30132 7.67174 3.33838 7.72454 3.36367 7.78271C3.38896 7.84088 3.40198 7.90327 3.40198 7.96629C3.40198 8.0293 3.38896 8.0917 3.36367 8.14987C3.33838 8.20804 3.30132 8.26084 3.25463 8.30522Z" fill="white"/>
</svg>
