<svg width="31" height="35" viewBox="0 0 31 35" fill="none" xmlns="http://www.w3.org/2000/svg">
<path id="icon" fill-rule="evenodd" clip-rule="evenodd" d="M3.44444 0C2.53092 0 1.65481 0.368749 1.00885 1.02513C0.362896 1.6815 0 2.57174 0 3.5V33.075C0 33.3278 0.0490014 33.5781 0.144206 33.8117C0.239411 34.0452 0.378955 34.2574 0.55487 34.4362C0.730786 34.6149 0.939627 34.7567 1.16947 34.8535C1.39932 34.9502 1.64566 35 1.89444 35H29.1056C29.3543 35 29.6007 34.9502 29.8305 34.8535C30.0604 34.7567 30.2692 34.6149 30.4451 34.4362C30.621 34.2574 30.7606 34.0452 30.8558 33.8117C30.951 33.5781 31 33.3278 31 33.075V15.75C31 14.8217 30.6371 13.9315 29.9911 13.2751C29.3452 12.6187 28.4691 12.25 27.5556 12.25H26.6944C26.4661 12.25 26.247 12.3422 26.0855 12.5063C25.9241 12.6704 25.8333 12.8929 25.8333 13.125V31.5H24.1111V3.5C24.1111 2.57174 23.7482 1.6815 23.1023 1.02513C22.4563 0.368749 21.5802 0 20.6667 0H3.44444ZM12.0556 5.25C11.5988 5.25 11.1607 5.43437 10.8378 5.76256C10.5148 6.09075 10.3333 6.53587 10.3333 7V8.75H8.61111C8.15435 8.75 7.7163 8.93437 7.39332 9.26256C7.07034 9.59075 6.88889 10.0359 6.88889 10.5C6.88889 10.9641 7.07034 11.4092 7.39332 11.7374C7.7163 12.0656 8.15435 12.25 8.61111 12.25H10.3333V14C10.3333 14.4641 10.5148 14.9092 10.8378 15.2374C11.1607 15.5656 11.5988 15.75 12.0556 15.75C12.5123 15.75 12.9504 15.5656 13.2733 15.2374C13.5963 14.9092 13.7778 14.4641 13.7778 14V12.25H15.5C15.9568 12.25 16.3948 12.0656 16.7178 11.7374C17.0408 11.4092 17.2222 10.9641 17.2222 10.5C17.2222 10.0359 17.0408 9.59075 16.7178 9.26256C16.3948 8.93437 15.9568 8.75 15.5 8.75H13.7778V7C13.7778 6.53587 13.5963 6.09075 13.2733 5.76256C12.9504 5.43437 12.5123 5.25 12.0556 5.25ZM12.0556 21C11.142 21 10.2659 21.3687 9.61997 22.0251C8.97401 22.6815 8.61111 23.5717 8.61111 24.5V31.5H15.5V24.5C15.5 23.5717 15.1371 22.6815 14.4911 22.0251C13.8452 21.3687 12.9691 21 12.0556 21Z" fill="#254D5A"/>
</svg>
