<svg width="11" height="19" viewBox="0 0 11 19" fill="none" xmlns="http://www.w3.org/2000/svg">
<path id="element" d="M2.29998 0.424999L10.725 8.825C10.825 8.925 10.896 9.03333 10.938 9.15C10.98 9.26667 11.0007 9.39167 11 9.525C11 9.65833 10.9793 9.78333 10.938 9.9C10.8967 10.0167 10.8257 10.125 10.725 10.225L2.29998 18.65C2.06665 18.8833 1.77499 19 1.42498 19C1.07498 19 0.774985 18.875 0.524985 18.625C0.274985 18.375 0.149985 18.0833 0.149985 17.75C0.149985 17.4167 0.274985 17.125 0.524985 16.875L7.87498 9.525L0.524985 2.175C0.291652 1.94167 0.174985 1.654 0.174985 1.312C0.174985 0.970001 0.299985 0.674332 0.549985 0.424999C0.799985 0.174999 1.09165 0.0499992 1.42498 0.0499992C1.75832 0.0499992 2.04998 0.174999 2.29998 0.424999Z" fill="#575D62"/>
</svg>
