<svg width="13" height="13" viewBox="0 0 13 13" fill="none" xmlns="http://www.w3.org/2000/svg">
<path id="Vector" fill-rule="evenodd" clip-rule="evenodd" d="M5.58835 0.378397L4.6091 1.35678C4.53003 1.43588 4.42284 1.48044 4.31099 1.4807H2.77019C2.05785 1.4807 1.4807 2.05785 1.4807 2.77019V4.31099C1.48048 4.4231 1.43593 4.53057 1.35678 4.60996L0.377531 5.58835C0.135798 5.83016 0 6.15808 0 6.5C0 6.84192 0.135798 7.16984 0.377531 7.41165L1.35678 8.3909C1.43588 8.46997 1.48044 8.57716 1.4807 8.68901V10.2298C1.4807 10.9421 2.05785 11.5193 2.77019 11.5193H4.31099C4.4231 11.5195 4.53057 11.5641 4.60996 11.6432L5.58835 12.6225C5.83016 12.8642 6.15808 13 6.5 13C6.84192 13 7.16984 12.8642 7.41165 12.6225L8.3909 11.6432C8.46997 11.5641 8.57716 11.5196 8.68901 11.5193H10.2298C10.9421 11.5193 11.5193 10.9421 11.5193 10.2298V8.68901C11.5195 8.5769 11.5641 8.46943 11.6432 8.39004L12.6225 7.41165C12.8642 7.16984 13 6.84192 13 6.5C13 6.15808 12.8642 5.83016 12.6225 5.58835L11.6432 4.6091C11.5641 4.53003 11.5196 4.42284 11.5193 4.31099V2.77019C11.5193 2.05785 10.9421 1.4807 10.2298 1.4807H8.68901C8.57686 1.48067 8.46932 1.43609 8.39004 1.35678L7.41165 0.377531C7.16984 0.135798 6.84192 0 6.5 0C6.15808 0 5.83016 0.136664 5.58835 0.378397ZM4.02675 8.3597L8.3597 4.02675L8.97325 4.64029L4.64029 8.97325L4.02675 8.3597ZM4.33352 4.33352V5.20011H5.20011V4.33352H4.33352ZM7.79989 8.66648H8.66648V7.79989H7.79989V8.66648Z" fill="#575D62"/>
</svg>
