<svg width="11" height="13" viewBox="0 0 11 13" fill="none" xmlns="http://www.w3.org/2000/svg">
<path id="Vector" d="M1.22239 0C0.543964 0 0 0.550952 0 1.2381L0 11.1429C0 11.4712 0.128787 11.7861 0.35803 12.0183C0.587273 12.2505 0.898194 12.381 1.22239 12.381H3.66718V11.1986L4.94458 9.90476H1.22239V8.66667H6.16697L7.38936 7.42857H1.22239V6.19048H8.61175L9.77914 5.0081V3.71429L6.11196 0L1.22239 0ZM5.50076 0.928571L8.86234 4.33333H5.50076V0.928571ZM9.87082 6.80952C9.82558 6.80852 9.78061 6.81677 9.7386 6.83379C9.69659 6.85081 9.65841 6.87625 9.62634 6.90857L9.00292 7.54L10.2803 8.82762L10.9037 8.20238C11.0321 8.06619 11.0321 7.84333 10.9037 7.71333L10.1092 6.90857C10.078 6.87683 10.0408 6.85172 9.99986 6.83471C9.95893 6.8177 9.91506 6.80914 9.87082 6.80952ZM8.64231 7.90524L4.88957 11.7124V13H6.16086L9.91971 9.19286L8.64231 7.90524Z" fill="white"/>
</svg>
