<svg width="60" height="70" viewBox="0 0 60 70" fill="none" xmlns="http://www.w3.org/2000/svg">
<path id="icon" d="M23.3333 6.66668C22.3889 6.66668 21.5967 6.34668 20.9567 5.70668C20.3167 5.06668 19.9978 4.27557 20 3.33334C20 2.3889 20.32 1.59668 20.96 0.956678C21.6 0.316678 22.3911 -0.00221069 23.3333 1.1534e-05H36.6667C37.6111 1.1534e-05 38.4033 0.320011 39.0433 0.960011C39.6833 1.60001 40.0022 2.39112 40 3.33334C40 4.27779 39.68 5.07001 39.04 5.71001C38.4 6.35001 37.6089 6.6689 36.6667 6.66668H23.3333ZM30 43.3333C30.9444 43.3333 31.7367 43.0133 32.3767 42.3733C33.0167 41.7333 33.3356 40.9422 33.3333 40V26.6667C33.3333 25.7222 33.0133 24.93 32.3733 24.29C31.7333 23.65 30.9422 23.3311 30 23.3333C29.0556 23.3333 28.2633 23.6533 27.6233 24.2933C26.9833 24.9333 26.6644 25.7245 26.6667 26.6667V40C26.6667 40.9444 26.9867 41.7367 27.6267 42.3767C28.2667 43.0167 29.0578 43.3356 30 43.3333ZM30 70C25.8889 70 22.0133 69.2078 18.3733 67.6233C14.7333 66.0389 11.5533 63.8867 8.83334 61.1667C6.11112 58.4444 3.95778 55.2633 2.37334 51.6233C0.788893 47.9833 -0.00221755 44.1089 4.66854e-06 40C4.66854e-06 35.8889 0.792227 32.0133 2.37667 28.3733C3.96112 24.7333 6.11334 21.5533 8.83334 18.8333C11.5556 16.1111 14.7367 13.9578 18.3767 12.3733C22.0167 10.7889 25.8911 9.99779 30 10C33.4444 10 36.75 10.5556 39.9167 11.6667C43.0833 12.7778 46.0556 14.3889 48.8333 16.5L51.25 14.0833C51.8611 13.4722 52.6111 13.1667 53.5 13.1667C54.3889 13.1667 55.1667 13.5 55.8333 14.1667C56.4444 14.7778 56.75 15.5556 56.75 16.5C56.75 17.4445 56.4444 18.2222 55.8333 18.8333L53.5 21.1667C55.6111 23.9445 57.2222 26.9167 58.3333 30.0833C59.4444 33.25 60 36.5556 60 40C60 44.1111 59.2078 47.9867 57.6233 51.6267C56.0389 55.2667 53.8867 58.4467 51.1667 61.1667C48.4444 63.8889 45.2633 66.0422 41.6233 67.6267C37.9833 69.2111 34.1089 70.0022 30 70Z" fill="white"/>
</svg>
